<svg xmlns="http://www.w3.org/2000/svg" width="64" height="64" viewBox="0 0 64 64"><defs><radialGradient id="a" cx="25.6" cy="48.8" r="15.4" fx="25.6" fy="48.8" gradientUnits="userSpaceOnUse"><stop offset=".5" stop-color="#d7d9d9"/><stop offset=".7" stop-color="#a6a8ab"/><stop offset=".9" stop-color="#76787e"/><stop offset="1" stop-color="#64666d"/></radialGradient><linearGradient id="b" x1="23.2" x2="40.9" y1="26.5" y2="26.5" gradientUnits="userSpaceOnUse"><stop offset="0" stop-color="#fac644"/><stop offset="1" stop-color="#b2e5fb"/></linearGradient></defs><path fill="url(#a)" d="M24 60.3c0 2.4 1.8 3.7 3.6 3.7h8.8c1.7 0 3.5-1.3 3.5-3.7v-3.7H24z"/><path fill="url(#b)" d="M31.9 0a20 20 0 0 0-19.4 26.2c1.6 5.1 7 8.5 9.2 14.5 1.2 3.3 2.3 5 2.3 12.4h15.9c0-7.5.8-8.8 2.1-12.4 2.3-6.1 7.6-8.8 9.6-15.3C55.4 12.4 45.1 0 31.9 0"/></svg>